<svg version="1.2" xmlns="http://www.w3.org/2000/svg" viewBox="0 0 81 88" width="81" height="88"><defs><clipPath clipPathUnits="userSpaceOnUse" id="cp1"><path d="m-1285-913h1920v1080h-1920z"/></clipPath><clipPath clipPathUnits="userSpaceOnUse" id="cp2"><path d="m0.5 0.93h79.65v86.36h-79.65z"/></clipPath><linearGradient id="P" gradientUnits="userSpaceOnUse"/><linearGradient id="g1" x1="20.6" y1=".9" x2="20.6" y2="20.4" href="#P"><stop stop-color="#030c33"/><stop offset="1" stop-color="#2e48d9"/></linearGradient><linearGradient id="g2" x1="20.6" y1="34.1" x2="20.6" y2="87.3" href="#P"><stop stop-color="#030c33"/><stop offset="1" stop-color="#2e48d9"/></linearGradient><linearGradient id="g3" x1="60" y1=".9" x2="60" y2="20.4" href="#P"><stop stop-color="#030c33"/><stop offset="1" stop-color="#2e48d9"/></linearGradient><linearGradient id="g4" x1="60" y1="34.1" x2="60" y2="87.3" href="#P"><stop stop-color="#030c33"/><stop offset="1" stop-color="#2e48d9"/></linearGradient><linearGradient id="g5" x1="40.3" y1="23.9" x2="40.3" y2="58.7" href="#P"><stop stop-color="#030c33"/><stop offset="1" stop-color="#2e48d9"/></linearGradient><linearGradient id="g6" x1="40.3" y1="30.6" x2="40.3" y2="61.6" href="#P"><stop stop-color="#030c33"/><stop offset="1" stop-color="#2e48d9"/></linearGradient><linearGradient id="g7" x1="49.7" y1="36" x2="49.7" y2="41.5" href="#P"><stop stop-color="#030c33"/><stop offset="1" stop-color="#2e48d9"/></linearGradient><linearGradient id="g8" x1="40.3" y1="66.8" x2="40.3" y2="86" href="#P"><stop stop-color="#030c33"/><stop offset="1" stop-color="#2e48d9"/></linearGradient></defs><style>.a{fill:url(#g1)}.b{fill:url(#g2)}.c{fill:url(#g3)}.d{fill:url(#g4)}.e{fill:url(#g5)}.f{fill:url(#g6)}.g{fill:url(#g7)}.h{fill:url(#g8)}</style><g clip-path="url(#cp1)"><g clip-path="url(#cp2)"><path fill-rule="evenodd" class="a" d="m20.6 20.4c-5.4 0-9.7-4.4-9.7-9.7 0-5.4 4.3-9.8 9.7-9.8 5.4 0 9.7 4.4 9.7 9.8 0 5.3-4.3 9.7-9.7 9.7zm0-17.4c-4.2 0-7.6 3.5-7.6 7.7 0 4.2 3.4 7.6 7.6 7.6 4.2 0 7.6-3.4 7.6-7.6 0-4.2-3.4-7.7-7.6-7.7z"/><path class="b" d="m27.6 87.3c-3.1 0-5.6-2.5-5.6-5.7v-20.4c0-0.8-0.6-1.5-1.4-1.5-0.8 0-1.4 0.7-1.4 1.5v20.4c0 3.2-2.5 5.7-5.6 5.7-2.9 0-5.1-2.4-5.1-5.7v-25.1q0 0 0 0v-21.4c0-0.5 0.4-1 1-1 0.6 0 1.1 0.5 1.1 1v21.4q0 0 0 0v25.1c0 1.8 0.9 3.6 3 3.6 1.9 0 3.5-1.6 3.5-3.6v-20.4c0-2 1.6-3.6 3.5-3.6 1.9 0 3.5 1.6 3.5 3.6v20.4c0 2 1.6 3.6 3.5 3.6 2.1 0 3-1.8 3-3.6v-20.5c0-0.5 0.5-1 1.1-1 0.6 0 1 0.5 1 1v20.5c0 3.3-2.2 5.7-5.1 5.7z"/><path fill-rule="evenodd" class="c" d="m60 20.4c-5.3 0-9.7-4.4-9.7-9.7 0-5.4 4.4-9.8 9.7-9.8 5.4 0 9.8 4.4 9.8 9.8 0 5.3-4.4 9.7-9.8 9.7zm0-17.4c-4.2 0-7.6 3.5-7.6 7.7 0 4.2 3.4 7.6 7.6 7.6 4.2 0 7.7-3.4 7.7-7.6 0-4.2-3.5-7.7-7.7-7.7z"/><path class="d" d="m67 87.3c-3.1 0-5.5-2.5-5.5-5.7v-20.4c0-0.8-0.7-1.5-1.5-1.5-0.7 0-1.4 0.7-1.4 1.5v20.4c0 3.2-2.5 5.7-5.5 5.7-3 0-5.2-2.4-5.2-5.7v-20.5c0-0.5 0.5-1 1.1-1 0.5 0 1 0.5 1 1v20.5c0 1.8 1 3.6 3.1 3.6 1.9 0 3.4-1.6 3.4-3.6v-20.4c0-2 1.6-3.6 3.5-3.6 2 0 3.6 1.6 3.6 3.6v20.4c0 2 1.5 3.6 3.4 3.6 2.1 0 3.1-1.8 3.1-3.6v-25.1q0 0 0 0v-21.4c0-0.5 0.4-1 1-1 0.6 0 1.1 0.5 1.1 1v21.4q0 0 0 0v25.1c0 3.3-2.2 5.7-5.2 5.7z"/><path class="e" d="m75.3 58.7c-2.9 0-5.2-2.4-5.2-5.3 0-0.6 0.4-1.1 1-1.1 0.6 0 1.1 0.5 1.1 1.1 0 1.7 1.4 3.2 3.1 3.2 1.3 0 2.7-1 2.7-3.2v-19.6c0-4.3-3.5-7.8-7.8-7.8h-59.8c-4.3 0-7.8 3.5-7.8 7.8v19.6c0 2.2 1.4 3.2 2.8 3.2 1.7 0 3.1-1.5 3.1-3.2 0-0.6 0.4-1.1 1-1.1 0.6 0 1.1 0.5 1.1 1.1 0 2.9-2.4 5.3-5.2 5.3-2.8 0-4.9-2.3-4.9-5.3v-19.6c0-5.5 4.4-9.9 9.9-9.9h59.8c5.5 0 9.9 4.4 9.9 9.9v19.6c0 3-2 5.3-4.8 5.3z"/><path fill-rule="evenodd" class="f" d="m40.3 61.6q-0.3 0-0.5-0.1l-0.4-0.3c-0.5-0.3-4.5-2.7-8.5-6.4-5.4-5.1-8.1-9.9-8.1-14.4 0-5.4 4.4-9.8 9.8-9.8 3.1 0 5.9 1.4 7.7 3.8 1.9-2.4 4.7-3.8 7.7-3.8 5.4 0 9.8 4.4 9.8 9.8 0 4.5-2.7 9.3-8.1 14.4-4 3.7-8 6.1-8.4 6.4l-0.4 0.3q-0.3 0.1-0.6 0.1zm-7.7-28.9c-4.2 0-7.7 3.5-7.7 7.7 0 2.7 1.3 7.1 7.5 12.8 3.5 3.3 7.2 5.6 7.9 6.1 0.8-0.5 4.4-2.8 8-6.1 3.4-3.2 7.4-7.9 7.4-12.8 0-4.2-3.4-7.7-7.7-7.7-2.8 0-5.4 1.6-6.8 4.1-0.1 0.3-0.5 0.5-0.9 0.5-0.4 0-0.7-0.2-0.9-0.5-1.4-2.5-3.9-4.1-6.8-4.1z"/><path class="g" d="m51.4 41.5c-0.6 0-1.1-0.5-1.1-1.1 0-1.2-1-2.3-2.3-2.3-0.6 0-1-0.4-1-1 0-0.6 0.4-1.1 1-1.1 2.5 0 4.4 2 4.4 4.4 0 0.6-0.4 1.1-1 1.1z"/><path class="h" d="m40.3 86c-0.6 0-1-0.5-1-1.1v-0.6c0-0.6 0.4-1 1-1 0.6 0 1.1 0.4 1.1 1v0.6c0 0.6-0.5 1.1-1.1 1.1zm0-8.2c-0.6 0-1-0.5-1-1.1v-0.6c0-0.6 0.4-1.1 1-1.1 0.6 0 1.1 0.5 1.1 1.1v0.6c0 0.6-0.5 1.1-1.1 1.1zm0-8.3c-0.6 0-1-0.4-1-1v-0.6c0-0.6 0.4-1.1 1-1.1 0.6 0 1.1 0.5 1.1 1.1v0.6c0 0.6-0.5 1-1.1 1z"/></g></g></svg>