<svg version="1.2" xmlns="http://www.w3.org/2000/svg" viewBox="0 0 114 97" width="114" height="97"><defs><clipPath clipPathUnits="userSpaceOnUse" id="cp1"><path d="m-932-904h1920v1080h-1920z"/></clipPath><clipPath clipPathUnits="userSpaceOnUse" id="cp2"><path d="m0.33 1h112.85v95.29h-112.85z"/></clipPath><linearGradient id="P" gradientUnits="userSpaceOnUse"/><linearGradient id="g1" x1="85.9" y1="-33.6" x2="56.8" y2="96.3" href="#P"><stop stop-color="#030c33"/><stop offset="1" stop-color="#2e48d9"/></linearGradient><linearGradient id="g2" x1="94.2" y1="-26.4" x2="56.8" y2="62.1" href="#P"><stop stop-color="#030c33"/><stop offset="1" stop-color="#2e48d9"/></linearGradient><linearGradient id="g3" x1="80" y1="-38.4" x2="67.7" y2="39.7" href="#P"><stop stop-color="#030c33"/><stop offset="1" stop-color="#2e48d9"/></linearGradient><linearGradient id="g4" x1="58" y1="-38.4" x2="45.8" y2="39.7" href="#P"><stop stop-color="#030c33"/><stop offset="1" stop-color="#2e48d9"/></linearGradient><linearGradient id="g5" x1="58.1" y1="59.6" x2="56.8" y2="96.3" href="#P"><stop stop-color="#030c33"/><stop offset="1" stop-color="#2e48d9"/></linearGradient><linearGradient id="g6" x1="58" y1="4.1" x2="56.8" y2="50.1" href="#P"><stop stop-color="#030c33"/><stop offset="1" stop-color="#2e48d9"/></linearGradient><linearGradient id="g7" x1="58" y1="-22.8" x2="56.7" y2="10.4" href="#P"><stop stop-color="#030c33"/><stop offset="1" stop-color="#2e48d9"/></linearGradient><linearGradient id="g8" x1="23.5" y1="3.7" x2="20.5" y2="24.7" href="#P"><stop stop-color="#030c33"/><stop offset="1" stop-color="#2e48d9"/></linearGradient><linearGradient id="g9" x1="95.9" y1="3.6" x2="93" y2="24.6" href="#P"><stop stop-color="#030c33"/><stop offset="1" stop-color="#2e48d9"/></linearGradient><linearGradient id="g10" x1="38.8" y1="-27.3" x2="35.7" y2="12.9" href="#P"><stop stop-color="#030c33"/><stop offset="1" stop-color="#2e48d9"/></linearGradient><linearGradient id="g11" x1="113.2" y1="18" x2="107.5" y2="40" href="#P"><stop stop-color="#030c33"/><stop offset="1" stop-color="#2e48d9"/></linearGradient><linearGradient id="g12" x1="80.9" y1="-27.3" x2="77.8" y2="12.8" href="#P"><stop stop-color="#030c33"/><stop offset="1" stop-color="#2e48d9"/></linearGradient><linearGradient id="g13" x1="11.7" y1="18.1" x2="6" y2="40" href="#P"><stop stop-color="#030c33"/><stop offset="1" stop-color="#2e48d9"/></linearGradient><linearGradient id="g14" x1="73.7" y1="-24.5" x2="56.8" y2="82.1" href="#P"><stop stop-color="#030c33"/><stop offset="1" stop-color="#2e48d9"/></linearGradient><linearGradient id="g15" x1="68.6" y1="42.5" x2="65.7" y2="63" href="#P"><stop stop-color="#030c33"/><stop offset="1" stop-color="#2e48d9"/></linearGradient></defs><style>.a{fill:url(#g1)}.b{fill:url(#g2)}.c{fill:url(#g3)}.d{fill:url(#g4)}.e{fill:url(#g5)}.f{fill:url(#g6)}.g{fill:url(#g7)}.h{fill:url(#g8)}.i{fill:url(#g9)}.j{fill:url(#g10)}.k{fill:url(#g11)}.l{fill:url(#g12)}.m{fill:url(#g13)}.n{fill:url(#g14)}.o{fill:url(#g15)}</style><g clip-path="url(#cp1)"><g clip-path="url(#cp2)"><path class="a" d="m35.2 96.3c-2 0-3.9-0.8-5.3-2.2-1.4-1.4-2.2-3.3-2.2-5.3v-27.9c0-0.8 0.5-1.3 1.2-1.3 0.8 0 1.3 0.5 1.3 1.3v27.9c0 1.3 0.6 2.5 1.5 3.5 0.9 0.9 2.2 1.4 3.5 1.4h43.2c1.3 0 2.5-0.5 3.5-1.4 0.9-1 1.4-2.2 1.4-3.6v-27.9c0-0.7 0.6-1.3 1.3-1.3 0.7 0 1.3 0.6 1.3 1.3v27.9c0 2.1-0.8 3.9-2.2 5.4-1.4 1.4-3.3 2.2-5.3 2.2h-43.2z"/><path class="b" d="m26.9 62.1c-4.2 0-7.5-3.3-7.5-7.5v-10c0-2 0.7-3.8 2.2-5.3 1.4-1.4 3.3-2.2 5.3-2.2h59.7c2 0 3.9 0.8 5.3 2.2 1.5 1.4 2.2 3.3 2.3 5.3v10c0 4.1-3.4 7.5-7.6 7.5h-8c-0.7 0-1.3-0.6-1.3-1.3 0-0.7 0.6-1.3 1.3-1.3h8c2.8 0 5-2.2 5-4.9v-10c0-1.3-0.5-2.6-1.5-3.5-0.9-0.9-2.1-1.4-3.5-1.4h-59.7c-1.3 0-2.6 0.5-3.5 1.4-1 1-1.5 2.2-1.5 3.5v10c0 2.8 2.3 5 5 5h8.2c0.8 0 1.3 0.5 1.3 1.3 0 0.7-0.5 1.2-1.3 1.2h-8.2z"/><path fill-rule="evenodd" class="c" d="m56.8 39.7c-0.8 0-1.3-0.6-1.3-1.3v-3.9c0-3.7 1-7.7 2.8-10.6 2.4-4.1 6.2-6.3 11-6.3 4.1 0 6.6 1.8 8 3.4 1.7 1.9 2.7 4.5 2.7 7.1 0 3.1-1.3 6-3.6 8.2-2.3 2.2-5.4 3.4-8.7 3.4h-10.9zm12.5-19.5c-3.9 0-6.8 1.7-8.8 5-2.3 3.8-2.5 8.1-2.5 9.3v2.6h9.7c2.6 0 5.1-0.9 6.9-2.7 1.8-1.6 2.8-3.9 2.8-6.3 0-2-0.7-3.9-2-5.4-1.5-1.7-3.6-2.5-6.1-2.5z"/><path fill-rule="evenodd" class="d" d="m45.8 39.7c-3.3 0-6.4-1.2-8.7-3.4-2.3-2.1-3.6-5-3.6-8.1 0-2.7 1-5.3 2.7-7.2 1.4-1.5 3.9-3.4 8-3.4 4.7 0 8.6 2.2 11 6.3 1.8 2.9 2.8 6.9 2.8 10.6v3.9c0 0.3-0.1 0.7-0.3 0.9-0.3 0.2-0.6 0.4-0.9 0.4h-11zm-1.6-19.5c-2.5 0-4.6 0.8-6.1 2.5-1.3 1.5-2 3.5-2 5.5 0 2.3 1 4.6 2.8 6.3 1.8 1.7 4.3 2.6 6.9 2.6h9.7v-2.6c0-1.2-0.2-5.5-2.5-9.3-2-3.3-4.9-5-8.8-5z"/><rect class="e" x="55.5" y="85.9" width="2.6" height="10.4" rx="1.3"></rect><rect class="f" x="55.5" y="37.1" width="2.6" height="13" rx="1.3"></rect><rect class="g" x="55.5" y="1" width="2.6" height="9.4" rx="1.3"></rect><path class="h" d="m22.2 24.7c-0.3 0-0.7-0.2-0.9-0.4l-3.4-3.4c-0.5-0.5-0.5-1.3 0-1.8 0.5-0.5 1.3-0.5 1.8 0l3.4 3.4c0.5 0.5 0.5 1.3 0 1.8-0.2 0.2-0.6 0.4-0.9 0.4z"/><path class="i" d="m91.3 24.6c-0.3 0-0.7-0.1-0.9-0.3-0.5-0.5-0.5-1.3 0-1.9l3.4-3.3c0.5-0.5 1.3-0.5 1.8 0 0.5 0.5 0.5 1.3 0 1.8l-3.4 3.4c-0.3 0.2-0.6 0.3-0.9 0.3z"/><path class="j" d="m37.5 12.9c-0.5 0-0.9-0.3-1.1-0.8l-3.7-8.8c-0.3-0.7 0-1.4 0.7-1.7 0.7-0.3 1.4 0 1.7 0.7l3.6 8.8c0.3 0.6 0 1.4-0.7 1.7q-0.2 0.1-0.5 0.1z"/><path class="k" d="m103.1 40c-0.5 0-1-0.3-1.2-0.8-0.3-0.7 0.1-1.4 0.7-1.7l8.8-3.6c0.7-0.3 1.4 0 1.7 0.7 0.3 0.6-0.1 1.4-0.7 1.6l-8.8 3.7q-0.3 0.1-0.5 0.1z"/><path class="l" d="m75.9 12.8q-0.2 0-0.5-0.1c-0.6-0.2-0.9-1-0.6-1.6l3.6-8.8c0.3-0.7 1-1 1.7-0.7 0.6 0.2 0.9 1 0.7 1.6l-3.7 8.8c-0.2 0.5-0.7 0.8-1.2 0.8z"/><path class="m" d="m10.4 40q-0.2 0-0.5-0.1l-8.8-3.6c-0.6-0.3-0.9-1-0.7-1.7 0.3-0.6 1-1 1.7-0.7l8.8 3.7c0.7 0.2 1 1 0.7 1.6-0.2 0.5-0.7 0.8-1.2 0.8z"/><path fill-rule="evenodd" class="n" d="m56.6 82.1q-0.3 0-0.6-0.1l-0.4-0.3c-0.5-0.2-4.3-2.6-8.1-6.2-5.1-4.9-7.7-9.6-7.7-13.9 0-2.6 1-5 2.9-6.8 1.8-1.8 4.2-2.8 6.7-2.8q0.1 0 0.1 0c2.9 0 5.5 1.3 7.3 3.4 1.8-2.1 4.5-3.3 7.4-3.3 5.3 0 9.6 4.4 9.5 9.7 0 4.3-2.6 9-7.9 13.8-3.8 3.5-7.7 5.9-8.1 6.1l-0.4 0.3q-0.3 0.1-0.7 0.1zm-7.2-27.6c-1.8 0-3.6 0.8-4.9 2.1-1.4 1.3-2.1 3.1-2.1 5-0.1 8.1 12.2 16.5 14.2 17.8 2.1-1.3 14.5-9.5 14.6-17.6 0-3.9-3.1-7.1-7-7.1q-0.1 0-0.1 0c-2.6 0-4.9 1.3-6.2 3.6-0.2 0.4-0.6 0.7-1.1 0.7-0.5 0-0.9-0.3-1.1-0.7-1.3-2.3-3.6-3.7-6.2-3.8q0 0-0.1 0z"/><path class="o" d="m67.3 63c-0.7 0-1.3-0.5-1.3-1.3 0-0.5-0.1-1-0.5-1.3-0.4-0.4-0.9-0.6-1.4-0.6-0.7 0-1.3-0.6-1.3-1.3 0.1-0.7 0.6-1.3 1.3-1.3 1.2 0 2.4 0.5 3.2 1.4 0.9 0.8 1.3 2 1.3 3.2 0 0.7-0.6 1.2-1.3 1.2z"/></g></g></svg>