<svg version="1.2" xmlns="http://www.w3.org/2000/svg" viewBox="0 0 106 85" width="106" height="85"><defs><clipPath clipPathUnits="userSpaceOnUse" id="cp1"><path d="m-1665-916h1920v1080h-1920z"/></clipPath><clipPath clipPathUnits="userSpaceOnUse" id="cp2"><path d="m0.5 0.95h105.08v83.34h-105.08z"/></clipPath><linearGradient id="P" gradientUnits="userSpaceOnUse"/><linearGradient id="g1" x1="53.6" y1="75.2" x2="53.6" y2="84.3" href="#P"><stop stop-color="#030c33"/><stop offset="1" stop-color="#2e48d9"/></linearGradient><linearGradient id="g2" x1="53.2" y1="19.8" x2="53.2" y2="22.3" href="#P"><stop stop-color="#030c33"/><stop offset="1" stop-color="#2e48d9"/></linearGradient><linearGradient id="g3" x1="72.9" y1="24.6" x2="72.9" y2="27.1" href="#P"><stop stop-color="#030c33"/><stop offset="1" stop-color="#2e48d9"/></linearGradient><linearGradient id="g4" x1="77.5" y1="14.7" x2="77.5" y2="77.8" href="#P"><stop stop-color="#030c33"/><stop offset="1" stop-color="#2e48d9"/></linearGradient><linearGradient id="g5" x1="8" y1="46.3" x2="8" y2="77.8" href="#P"><stop stop-color="#030c33"/><stop offset="1" stop-color="#2e48d9"/></linearGradient><linearGradient id="g6" x1="53.6" y1="65" x2="53.6" y2="67.6" href="#P"><stop stop-color="#030c33"/><stop offset="1" stop-color="#2e48d9"/></linearGradient><linearGradient id="g7" x1="53.1" y1="70.5" x2="53.1" y2="73" href="#P"><stop stop-color="#030c33"/><stop offset="1" stop-color="#2e48d9"/></linearGradient><linearGradient id="g8" x1="60.3" y1="70.5" x2="60.3" y2="73" href="#P"><stop stop-color="#030c33"/><stop offset="1" stop-color="#2e48d9"/></linearGradient><linearGradient id="g9" x1="38.7" y1="70.5" x2="38.7" y2="73" href="#P"><stop stop-color="#030c33"/><stop offset="1" stop-color="#2e48d9"/></linearGradient><linearGradient id="g10" x1="45.9" y1="70.5" x2="45.9" y2="73" href="#P"><stop stop-color="#030c33"/><stop offset="1" stop-color="#2e48d9"/></linearGradient><linearGradient id="g11" x1="31.6" y1="70.5" x2="31.6" y2="73" href="#P"><stop stop-color="#030c33"/><stop offset="1" stop-color="#2e48d9"/></linearGradient><linearGradient id="g12" x1="17.2" y1="70.5" x2="17.2" y2="73" href="#P"><stop stop-color="#030c33"/><stop offset="1" stop-color="#2e48d9"/></linearGradient><linearGradient id="g13" x1="24.4" y1="70.5" x2="24.4" y2="73" href="#P"><stop stop-color="#030c33"/><stop offset="1" stop-color="#2e48d9"/></linearGradient><linearGradient id="g14" x1="82.8" y1="70.5" x2="82.8" y2="73" href="#P"><stop stop-color="#030c33"/><stop offset="1" stop-color="#2e48d9"/></linearGradient><linearGradient id="g15" x1="90" y1="70.5" x2="90" y2="73" href="#P"><stop stop-color="#030c33"/><stop offset="1" stop-color="#2e48d9"/></linearGradient><linearGradient id="g16" x1="75.6" y1="70.5" x2="75.6" y2="73" href="#P"><stop stop-color="#030c33"/><stop offset="1" stop-color="#2e48d9"/></linearGradient><linearGradient id="g17" x1="23.3" y1=".9" x2="23.3" y2="52.3" href="#P"><stop stop-color="#030c33"/><stop offset="1" stop-color="#2e48d9"/></linearGradient><linearGradient id="g18" x1="64.4" y1="32.6" x2="64.4" y2="53.9" href="#P"><stop stop-color="#030c33"/><stop offset="1" stop-color="#2e48d9"/></linearGradient><linearGradient id="g19" x1="64.4" y1="51.3" x2="64.4" y2="67.6" href="#P"><stop stop-color="#030c33"/><stop offset="1" stop-color="#2e48d9"/></linearGradient><linearGradient id="g20" x1="23.4" y1="7.9" x2="23.4" y2="36.1" href="#P"><stop stop-color="#030c33"/><stop offset="1" stop-color="#2e48d9"/></linearGradient><linearGradient id="g21" x1="31.7" y1="12.7" x2="31.7" y2="18.3" href="#P"><stop stop-color="#030c33"/><stop offset="1" stop-color="#2e48d9"/></linearGradient></defs><style>.a{fill:url(#g1)}.b{fill:url(#g2)}.c{fill:url(#g3)}.d{fill:url(#g4)}.e{fill:url(#g5)}.f{fill:url(#g6)}.g{fill:url(#g7)}.h{fill:url(#g8)}.i{fill:url(#g9)}.j{fill:url(#g10)}.k{fill:url(#g11)}.l{fill:url(#g12)}.m{fill:url(#g13)}.n{fill:url(#g14)}.o{fill:url(#g15)}.p{fill:url(#g16)}.q{fill:url(#g17)}.r{fill:url(#g18)}.s{fill:url(#g19)}.t{fill:url(#g20)}.u{fill:url(#g21)}</style><g clip-path="url(#cp1)"><g clip-path="url(#cp2)"><path fill-rule="evenodd" class="a" d="m100.6 84.3h-94.1c-2.7 0-4.9-2.2-4.9-4.9v-2.2c0-1.1 0.9-2 2-2h100c1.1 0 2 0.9 2 2v2.2c0 2.7-2.2 4.9-5 4.9zm-96.4-6.5v1.6c0 1.3 1 2.3 2.3 2.3h94.1c1.4 0 2.4-1 2.4-2.3v-1.6z"/><path class="b" d="m55.1 22.3h-3.9c-0.7 0-1.2-0.5-1.2-1.2 0-0.8 0.5-1.3 1.2-1.3h3.9c0.7 0 1.3 0.5 1.3 1.3 0 0.7-0.6 1.2-1.3 1.2z"/><path class="c" d="m94.6 27.1h-43.4c-0.7 0-1.2-0.5-1.2-1.2 0-0.7 0.5-1.3 1.2-1.3h43.4c0.7 0 1.3 0.6 1.3 1.3 0 0.7-0.6 1.2-1.3 1.2z"/><path class="d" d="m103.8 77.8c-0.4 0-0.7-0.1-1-0.4l-9.2-10.3q-0.3-0.3-0.3-0.8v-42.9c0-3.3-2.8-6.1-6.2-6.1h-35.9c-0.7 0-1.2-0.6-1.2-1.3 0-0.7 0.5-1.3 1.2-1.3h35.9c4.8 0 8.8 3.9 8.8 8.7v42.4l8.8 9.9c0.5 0.5 0.5 1.3-0.1 1.8q-0.3 0.3-0.8 0.3z"/><path class="e" d="m3.4 77.8q-0.5 0-0.9-0.3c-0.5-0.5-0.5-1.3-0.1-1.8l8.9-9.9v-18.2c0-0.7 0.6-1.3 1.3-1.3 0.7 0 1.3 0.6 1.3 1.3v18.7q0 0.5-0.3 0.8l-9.3 10.3c-0.2 0.3-0.6 0.4-0.9 0.4z"/><path class="f" d="m94.6 67.6h-82c-0.7 0-1.3-0.6-1.3-1.3 0-0.7 0.6-1.3 1.3-1.3h82c0.7 0 1.3 0.6 1.3 1.3 0 0.7-0.6 1.3-1.3 1.3z"/><path class="g" d="m54.1 73h-2c-0.8 0-1.3-0.6-1.3-1.3 0-0.7 0.5-1.2 1.3-1.2h2c0.7 0 1.3 0.5 1.3 1.2 0 0.7-0.6 1.3-1.3 1.3z"/><path class="h" d="m61.3 73h-2.1c-0.7 0-1.3-0.6-1.3-1.3 0-0.7 0.6-1.2 1.3-1.2h2.1c0.7 0 1.3 0.5 1.3 1.2 0 0.7-0.6 1.3-1.3 1.3z"/><path class="i" d="m39.8 73h-2.1c-0.7 0-1.3-0.6-1.3-1.3 0-0.7 0.6-1.2 1.3-1.2h2.1c0.7 0 1.2 0.5 1.2 1.2 0 0.7-0.5 1.3-1.2 1.3z"/><path class="j" d="m46.9 73h-2c-0.7 0-1.3-0.6-1.3-1.3 0-0.7 0.6-1.2 1.3-1.2h2c0.7 0 1.3 0.5 1.3 1.2 0 0.7-0.6 1.3-1.3 1.3z"/><path class="k" d="m32.6 73h-2.1c-0.7 0-1.2-0.6-1.2-1.3 0-0.7 0.5-1.2 1.2-1.2h2.1c0.7 0 1.3 0.5 1.3 1.2 0 0.7-0.6 1.3-1.3 1.3z"/><path class="l" d="m18.2 73h-2c-0.7 0-1.3-0.6-1.3-1.3 0-0.7 0.6-1.2 1.3-1.2h2c0.8 0 1.3 0.5 1.3 1.2 0 0.7-0.5 1.3-1.3 1.3z"/><path class="m" d="m25.4 73h-2c-0.7 0-1.3-0.6-1.3-1.3 0-0.7 0.6-1.2 1.3-1.2h2c0.7 0 1.3 0.5 1.3 1.2 0 0.7-0.6 1.3-1.3 1.3z"/><path class="n" d="m83.8 73h-2c-0.7 0-1.3-0.6-1.3-1.3 0-0.7 0.6-1.2 1.3-1.2h2c0.7 0 1.3 0.5 1.3 1.2 0 0.7-0.6 1.3-1.3 1.3z"/><path class="o" d="m91 73h-2.1c-0.7 0-1.2-0.6-1.2-1.3 0-0.7 0.5-1.2 1.2-1.2h2.1c0.7 0 1.3 0.5 1.3 1.2 0 0.7-0.6 1.3-1.3 1.3z"/><path class="p" d="m76.6 73h-2c-0.7 0-1.3-0.6-1.3-1.3 0-0.7 0.6-1.2 1.3-1.2h2c0.7 0 1.3 0.5 1.3 1.2 0 0.7-0.6 1.3-1.3 1.3z"/><path fill-rule="evenodd" class="q" d="m33.6 52.3c-0.5 0-1-0.2-1.4-0.6l-8.7-8.6h-15.7c-4 0-7.3-3.3-7.3-7.3v-27.6c0-4 3.3-7.3 7.3-7.3h31.1c4 0 7.3 3.3 7.3 7.3v27.6c0 4-3.3 7.3-7.3 7.3h-3.3v7.2c0 0.8-0.4 1.6-1.2 1.9q-0.4 0.1-0.8 0.1zm-25.8-48.8c-2.6 0-4.7 2.1-4.7 4.7v27.6c0 2.6 2.1 4.7 4.7 4.7h15.9c0.6 0 1.1 0.2 1.5 0.6l7.9 7.9v-6.5c0-1.1 0.9-2 2-2h3.8c2.6 0 4.7-2.1 4.7-4.7v-27.6c0-2.6-2.1-4.7-4.7-4.7zm16 39.6z"/><path fill-rule="evenodd" class="r" d="m64.4 53.9c-5.4 0-9.9-5-9.9-10.9 0-5.8 4.4-10.4 9.9-10.4 5.4 0 9.8 4.6 9.8 10.4 0 5.9-4.5 10.9-9.8 10.9zm0-18.7c-4.1 0-7.3 3.5-7.3 7.8 0 4.4 3.4 8.3 7.3 8.3 3.9 0 7.3-3.9 7.3-8.3 0-4.3-3.3-7.8-7.3-7.8z"/><path class="s" d="m81.5 67.6c-0.6 0-1.1-0.4-1.2-1-1.4-7.4-8-12.7-15.9-12.7-7.9 0-14.6 5.3-15.9 12.6-0.2 0.7-0.8 1.2-1.5 1.1-0.7-0.2-1.2-0.8-1.1-1.5 1.6-8.6 9.4-14.8 18.5-14.8 9.1 0 16.8 6.2 18.4 14.8 0.1 0.7-0.3 1.4-1 1.5q-0.1 0-0.3 0z"/><path fill-rule="evenodd" class="t" d="m23.4 36.1q-0.4 0-0.7-0.1l-0.4-0.3c-0.4-0.2-4-2.4-7.5-5.7-4.9-4.6-7.3-8.9-7.3-13 0-5 4-9.1 9-9.1 2.7 0 5.2 1.2 6.9 3.1 1.7-1.9 4.2-3.1 6.8-3.1 5 0 9.1 4.1 9.1 9.1 0 4.1-2.5 8.4-7.3 13-3.6 3.3-7.2 5.5-7.6 5.7l-0.4 0.3q-0.3 0.1-0.6 0.1zm-6.9-25.6c-3.6 0-6.5 2.9-6.5 6.5 0 6.4 8.6 13.4 13.4 16.4 4.8-3 13.3-10 13.3-16.4 0-3.6-2.9-6.5-6.5-6.5-2.4 0-4.6 1.3-5.7 3.4-0.2 0.4-0.7 0.6-1.1 0.6-0.5 0-0.9-0.2-1.2-0.6-1.1-2.1-3.3-3.4-5.7-3.4z"/><path class="u" d="m33.2 18.3c-0.7 0-1.3-0.6-1.3-1.3 0-1-0.7-1.7-1.7-1.7-0.7 0-1.3-0.6-1.3-1.3 0-0.7 0.6-1.3 1.3-1.3 2.4 0 4.3 1.9 4.3 4.3 0 0.7-0.6 1.3-1.3 1.3z"/></g></g></svg>