<svg xmlns="http://www.w3.org/2000/svg" width="42.816" height="29.971" viewBox="0 0 42.816 29.971">
    <defs>
        <style>
            .cls-1{fill:#fff;fill-rule:evenodd}
        </style>
    </defs>
    <g id="edit" transform="translate(0 -28.429)">
        <g id="Group_734" data-name="Group 734" transform="translate(4.282 28.429)">
            <path id="Path_1003" data-name="Path 1003" class="cls-1" d="M27.381 33.781a4.282 4.282 0 1 1 0-2.141h29.036a1.07 1.07 0 0 1 0 2.141zm-2.006-1.07a2.141 2.141 0 1 1-2.141-2.141 2.141 2.141 0 0 1 2.141 2.141z" transform="translate(-18.953 -28.429)"/>
        </g>
        <g id="Group_735" data-name="Group 735" transform="translate(0 31.64)">
            <path id="Path_1004" data-name="Path 1004" d="M1.07 44.784h3.346a4.315 4.315 0 0 1 0-2.141H1.07a1.07 1.07 0 1 0 0 2.141z" transform="translate(0 -42.643)" style="fill:#fff"/>
        </g>
        <g id="Group_736" data-name="Group 736" transform="translate(0 49.837)">
            <path id="Path_1005" data-name="Path 1005" class="cls-1" d="M25.555 126.4a4.283 4.283 0 0 0-8.293 0H1.07a1.07 1.07 0 0 0 0 2.141h16.191a4.283 4.283 0 0 0 8.293 0h16.191a1.07 1.07 0 0 0 0-2.141zm-4.147 3.211a2.141 2.141 0 1 0-2.141-2.141 2.141 2.141 0 0 0 2.141 2.143z" transform="translate(0 -123.191)"/>
        </g>
        <g id="Group_737" data-name="Group 737" transform="translate(0 39.133)">
            <path id="Path_1006" data-name="Path 1006" class="cls-1" d="M38.4 79.021a4.283 4.283 0 0 0-8.293 0H1.07a1.07 1.07 0 1 0 0 2.141h29.036a4.283 4.283 0 0 0 8.293 0h3.346a1.07 1.07 0 1 0 0-2.141zm-4.147 3.211a2.141 2.141 0 1 0-2.141-2.141 2.141 2.141 0 0 0 2.141 2.141z" transform="translate(0 -75.81)"/>
        </g>
    </g>
</svg>
